# xmcd CD database file generated by LOLA_Freedb v0.9beta0
# 
# Track frame offsets:
#      150
#      11988
#      22483
# 
# Disc length: 475 seconds
# 
# Revision: 0 
# Processed by: cddbd v1.5.2PL0 Copyright (c) Steve Scherf et al.
# Submitted via: LOLA_Freedb v0.9beta0
# 
DISCID=2501d903
DTITLE=Whitney Stone - Break'n Out - Demo 01
DYEAR=2008
DGENRE=
TTITLE0=Whitney Stone - Pick Me Up On Your Way Down
TTITLE1=Whitney Stone - Between A Rock And A Heartache
TTITLE2=Whitney Stone - Country Heart
EXTD=
EXTT0=
EXTT1=
EXTT2=
PLAYORDER=
